<svg width="512" height="512" viewBox="0 0 512 512" fill="none" xmlns="http://www.w3.org/2000/svg">
<g clip-path="url(#clip0)">
<path d="M391.59 170.667C368.059 170.667 348.923 189.803 348.923 213.334V288C348.923 311.531 368.059 330.667 391.59 330.667C399.355 330.667 406.651 328.576 412.923 324.928V365.781C412.923 434.645 356.923 490.666 288.038 490.666H240.87C222.481 490.666 204.091 486.314 187.643 478.079C154.342 461.418 130.491 429.61 123.835 392.959L114.854 343.743C114.47 341.503 114.257 339.22 114.257 336.938C114.257 319.359 126.204 304.255 143.313 300.245L277.542 268.672C279.163 277.504 278.075 286.613 274.299 295.019C269.307 306.24 260.176 314.731 248.635 318.934L202.662 335.659C195.387 338.304 189.585 343.936 186.705 351.126C183.846 358.315 184.209 366.379 187.665 373.291L200.721 399.424C203.366 404.715 209.745 406.805 215.036 404.203C220.305 401.558 222.439 395.158 219.815 389.888L206.759 363.733C205.735 361.728 206.183 359.914 206.546 359.018C206.887 358.101 207.805 356.479 209.959 355.69L255.932 338.965C272.935 332.778 286.375 320.277 293.777 303.744C301.18 287.211 301.542 268.843 294.822 252.032C292.859 247.125 287.633 244.459 282.491 245.611L138.448 279.51C111.632 285.803 92.923 309.419 92.923 336.961C92.923 340.481 93.264 344.001 93.862 347.542L102.843 396.822C110.694 440.022 138.832 477.569 178.107 497.195C197.478 506.88 219.174 512 240.849 512H288.017C368.657 512 434.257 446.4 434.257 365.781V213.333C434.257 189.803 415.121 170.667 391.59 170.667ZM412.924 288C412.924 299.755 403.367 309.333 391.591 309.333C379.815 309.333 370.258 299.754 370.258 288V213.333C370.258 201.578 379.815 192 391.591 192C403.367 192 412.924 201.579 412.924 213.333V288Z" fill="black"/>
<path d="M370.257 213.333V170.666C370.257 147.135 351.121 127.999 327.59 127.999C304.059 127.999 284.923 147.135 284.923 170.666V277.333C284.923 300.864 304.059 320 327.59 320C351.099 320 370.257 300.864 370.257 277.333V234.666C370.257 228.778 365.478 223.999 359.59 223.999C353.702 223.999 348.923 228.778 348.923 234.666V277.333C348.923 289.088 339.366 298.666 327.59 298.666C315.814 298.666 306.257 289.087 306.257 277.333V170.667C306.257 158.912 315.814 149.334 327.59 149.334C339.366 149.334 348.923 158.913 348.923 170.667V213.334C348.923 219.222 353.702 224.001 359.59 224.001C365.478 224.001 370.257 219.221 370.257 213.333Z" fill="black"/>
<path d="M261.99 0C239.142 0 220.219 17.131 217.894 40.512L211.963 199.061L160.06 82.688C155.132 71.403 145.553 62.741 133.799 58.987C122.044 55.254 109.202 56.726 98.642 63.083C81.511 73.344 73.746 93.803 79.762 112.854L136.082 291.201C137.533 295.766 141.714 298.668 146.258 298.668C147.325 298.668 148.413 298.519 149.479 298.177C155.09 296.406 158.204 290.412 156.434 284.801L100.093 106.433C97.064 96.854 100.989 86.55 109.586 81.366C114.919 78.166 121.405 77.419 127.293 79.318C133.224 81.217 138.045 85.547 140.541 91.307L200.402 225.515C203.602 232.704 211.175 236.587 218.983 235.158C226.727 233.643 232.274 227.094 232.572 219.265L239.185 41.964C240.358 30.209 250.15 21.335 261.99 21.335C274.641 21.335 284.923 31.618 284.923 44.268V170.668C284.923 176.556 289.702 181.335 295.59 181.335C301.478 181.335 306.257 176.556 306.257 170.668V44.268C306.257 19.861 286.417 0 261.99 0Z" fill="black"/>
</g>
<defs>
<clipPath id="clip0">
<rect width="512" height="512" fill="white"/>
</clipPath>
</defs>
</svg>
