<svg width="135" height="100" viewBox="0 0 135 100" fill="none" xmlns="http://www.w3.org/2000/svg">
<circle cx="59" cy="50" r="50" fill="#D16A6A"/>
<path d="M28.2119 86.3516C27.5381 86.1172 26.0879 86 23.8613 86H5.53613C4.0127 86 2.79688 85.7656 1.88867 85.2969C0.980469 84.7988 0.526367 83.9053 0.526367 82.6162C0.526367 81.6787 0.746094 80.9316 1.18555 80.375C2.35742 80.668 3.42676 80.8145 4.39355 80.8145C5.38965 80.8145 6.16602 80.7119 6.72266 80.5068C7.30859 80.3018 7.80664 79.9355 8.2168 79.4082C9.125 78.2949 9.6084 76.4639 9.66699 73.915V29.0029C9.66699 26.6885 9.02246 25.2383 7.7334 24.6523C7.32324 24.4473 6.7666 24.2715 6.06348 24.125C5.36035 23.9785 4.65723 23.832 3.9541 23.6855C3.28027 23.5098 2.70898 23.3047 2.24023 23.0703C1.30273 22.6016 0.833984 21.8105 0.833984 20.6973C0.833984 19.6133 1.05371 18.8076 1.49316 18.2803C2.16699 18.5146 3.61719 18.6318 5.84375 18.6318H23.7295C25.2529 18.6318 26.4688 18.8809 27.377 19.3789C28.3145 19.8477 28.7832 20.7266 28.7832 22.0156C28.7832 22.9824 28.5488 23.7295 28.0801 24.2568C26.9668 23.9639 25.751 23.8174 24.4326 23.8174C21.5908 23.8174 20.126 26.1318 20.0381 30.7607V75.6289C20.0381 77.9434 20.6826 79.4082 21.9717 80.0234C22.3818 80.1992 22.9385 80.3604 23.6416 80.5068C24.3447 80.6533 25.0332 80.8145 25.707 80.9902C26.4102 81.1367 26.9961 81.3271 27.4648 81.5615C28.4316 82.0596 28.915 82.8506 28.915 83.9346C28.915 84.96 28.6807 85.7656 28.2119 86.3516ZM40.9561 79.54C40.9561 77.4307 41.6445 75.6875 43.0215 74.3105C44.4277 72.9043 46.1562 72.2012 48.207 72.2012C51.5469 72.2012 53.8467 73.666 55.1064 76.5957C55.4873 77.5039 55.6777 78.4854 55.6777 79.54C55.6777 81.5908 54.9746 83.334 53.5684 84.7695C52.1621 86.1465 50.375 86.835 48.207 86.835C46.1562 86.835 44.4277 86.1465 43.0215 84.7695C41.6445 83.3633 40.9561 81.6201 40.9561 79.54ZM95.7559 86.3516C95.082 86.1172 93.6318 86 91.4053 86H73.0801C71.5566 86 70.3262 85.7656 69.3887 85.2969C68.4805 84.7988 68.0264 83.9053 68.0264 82.6162C68.0264 81.708 68.2607 80.9609 68.7295 80.375C69.8428 80.668 70.8828 80.8145 71.8496 80.8145C72.8164 80.8145 73.5635 80.7119 74.0908 80.5068C74.6182 80.3018 75.0723 79.9355 75.4531 79.4082C76.2734 78.3242 76.7129 76.4932 76.7715 73.915V28.5195C76.6836 26.4687 76.0098 25.165 74.75 24.6084C74.3691 24.4326 73.8418 24.2715 73.168 24.125L71.0586 23.6855C69.5938 23.334 68.7002 22.9092 68.3779 22.4111C68.0557 21.8838 67.8945 21.3564 67.8945 20.8291C67.8945 19.7158 68.1289 18.8662 68.5977 18.2803C69.2715 18.5146 70.7217 18.6318 72.9482 18.6318H91.2734C92.7969 18.6318 94.0127 18.8809 94.9209 19.3789C95.8291 19.8477 96.2832 20.7266 96.2832 22.0156C96.2832 23.0117 96.0635 23.7588 95.624 24.2568C94.5107 23.9639 93.4414 23.8174 92.416 23.8174C91.4199 23.8174 90.6289 23.9346 90.043 24.1689C89.4863 24.374 88.9883 24.7402 88.5488 25.2676C87.6699 26.3809 87.2012 28.2119 87.1426 30.7607V76.1562C87.2012 77.5918 87.4795 78.5586 87.9775 79.0566C88.71 79.7305 89.6035 80.1846 90.6582 80.4189C91.7129 80.624 92.5771 80.8145 93.251 80.9902C93.9541 81.1367 94.54 81.3271 95.0088 81.5615C95.9463 82.0303 96.415 82.8213 96.415 83.9346C96.415 85.0186 96.1953 85.8242 95.7559 86.3516ZM132.143 24.125C131.439 23.8906 130.663 23.7734 129.813 23.7734C128.964 23.7734 128.29 23.9346 127.792 24.2568C127.294 24.5498 126.752 24.9746 126.166 25.5312C125.58 26.0586 124.936 26.7031 124.232 27.4648L101.029 51.5029C106.391 52.9971 111.034 56.6006 114.96 62.3135C116.073 63.9248 117.113 65.5215 118.08 67.1035L120.761 71.6738C123.661 76.6836 126.342 79.1152 128.803 78.9688C130.004 78.9688 130.941 78.8223 131.615 78.5293C132.318 78.2363 132.816 78.0898 133.109 78.0898C133.402 78.0898 133.71 78.3242 134.032 78.793C134.384 79.2324 134.56 79.7451 134.56 80.3311C134.56 80.917 134.311 81.6201 133.812 82.4404C133.314 83.2314 132.611 83.9492 131.703 84.5938C129.652 86.0879 127.382 86.835 124.892 86.835C122.431 86.835 120.453 86.5127 118.959 85.8682C117.494 85.2236 116.146 84.2129 114.916 82.8359C113.715 81.459 112.602 79.9062 111.576 78.1777C110.551 76.4199 109.569 74.6475 108.632 72.8604L105.863 67.543C102.611 61.3613 99.0664 57.6553 95.2285 56.4248C94.6426 56.249 94.1152 56.2051 93.6465 56.293C93.1777 56.3516 92.6357 56.4248 92.0205 56.5127C91.6689 56.3955 91.4053 55.9854 91.2295 55.2822C91.0537 54.5498 90.9658 53.9639 90.9658 53.5244C90.9658 53.0557 91.1416 52.6602 91.4932 52.3379L113.773 27.6406C114.506 26.8496 114.872 26.2051 114.872 25.707C114.872 24.6523 113.217 23.9053 109.906 23.4658C108.471 23.29 107.592 22.9824 107.27 22.543C106.977 22.0742 106.83 21.5469 106.83 20.9609C106.83 19.8477 107.064 18.998 107.533 18.4121C108.061 18.5586 108.559 18.6318 109.027 18.6318H126.122C129.286 18.6318 131.322 19.0566 132.23 19.9062C132.641 20.2871 132.846 20.7559 132.846 21.3125C132.846 22.6602 132.611 23.5977 132.143 24.125Z" fill="black"/>
</svg>
